# Blender 4.5.0
# www.blender.org
mtllib slash.mtl
o Cone
v 0.000000 -0.059040 1.000000
v 0.079940 -0.057905 1.000000
v 0.156808 -0.054546 1.000000
v 0.227650 -0.049090 1.000000
v 0.289743 -0.041747 1.000000
v 0.340702 -0.032801 1.000000
v 0.378568 -0.022594 1.000000
v 0.401885 -0.011518 1.000000
v 0.409759 0.000000 1.000000
v 0.401885 0.011518 1.000000
v 0.378568 0.022594 1.000000
v 0.340702 0.032801 1.000000
v 0.289743 0.041748 1.000000
v 0.227650 0.049090 1.000000
v 0.156808 0.054546 1.000000
v 0.079940 0.057905 1.000000
v 0.000000 0.059040 1.000000
v -0.079940 0.057905 1.000000
v -0.156808 0.054546 1.000000
v -0.227650 0.049090 1.000000
v -0.289743 0.041748 1.000000
v -0.340702 0.032801 1.000000
v -0.378568 0.022594 1.000000
v -0.401885 0.011518 1.000000
v -0.409759 0.000000 1.000000
v -0.401885 -0.011518 1.000000
v -0.378568 -0.022594 1.000000
v -0.340702 -0.032801 1.000000
v -0.289743 -0.041747 1.000000
v -0.227650 -0.049090 1.000000
v -0.156808 -0.054546 1.000000
v -0.079940 -0.057905 1.000000
v 0.331154 0.001152 -1.058821
v 0.086560 0.056158 0.425772
v 0.222860 0.044154 0.557406
v -0.250562 0.014006 0.103543
v -0.214817 0.034210 0.136974
v -0.113215 0.050283 0.233931
v 0.034094 0.056894 0.375283
v 0.183458 0.049740 0.519254
v 0.271980 0.029265 0.605337
v -0.234539 0.027679 0.118313
v -0.153562 0.045711 0.195344
v -0.017943 0.056060 0.325281
v 0.137178 0.053774 0.474560
v 0.253015 0.037224 0.586728
v -0.246514 0.020883 0.107115
v -0.187663 0.040286 0.162804
v -0.067584 0.053798 0.277648
v -0.028461 0.074940 -0.211431
v 0.084979 0.066289 -0.112613
v 0.189107 0.048875 -0.021041
v 0.253460 0.028872 0.036396
v 0.157636 0.055278 -0.048821
v -0.122490 0.066060 -0.291872
v 0.237661 0.035450 0.022143
v -0.061190 0.075010 -0.239719
v -0.126975 0.060381 -0.295229
v 0.046266 0.070430 -0.146444
v -0.088671 0.073524 -0.263330
v 0.266202 0.016986 0.048493
v 0.007912 0.073372 -0.179856
v 0.122547 0.061162 -0.079680
v 0.216027 0.042190 0.002832
v 0.263047 0.022655 0.045249
v -0.109480 0.070505 -0.281036
v -0.034460 0.059616 -0.555084
v 0.230585 0.039598 -0.492661
v -0.051125 0.056509 -0.558827
v 0.286940 0.026707 -0.479027
v 0.025119 0.060760 -0.541288
v -0.056089 0.051837 -0.559785
v 0.137552 0.052661 -0.514824
v -0.008103 0.061011 -0.549018
v 0.306550 0.016173 -0.474031
v 0.100377 0.056276 -0.523613
v 0.062185 0.059082 -0.532605
v 0.203385 0.044108 -0.499170
v 0.172203 0.048525 -0.506600
v 0.272350 0.030811 -0.482589
v 0.253585 0.035132 -0.487130
v 0.303965 0.019348 -0.474764
v 0.297448 0.022872 -0.476425
v 0.279092 0.020890 0.616487
v -0.113194 -0.018940 0.233932
v -0.214690 -0.005391 0.136771
v 0.222990 -0.004200 0.560300
v 0.086410 -0.019752 0.426979
v -0.067630 -0.021307 0.277834
v -0.187547 -0.010801 0.162619
v -0.246448 0.007192 0.107004
v 0.253316 0.003553 0.590229
v 0.137072 -0.016066 0.476273
v -0.153483 -0.015378 0.195225
v -0.234429 0.000667 0.118135
v -0.018049 -0.022314 0.325724
v 0.272455 0.012062 0.609393
v 0.183447 -0.010828 0.521539
v 0.033948 -0.021827 0.376066
v 0.262857 0.012035 0.046058
v -0.122683 0.053735 -0.290910
v 0.006998 0.017728 -0.175545
v 0.215337 0.002941 0.005833
v 0.253088 0.007956 0.037992
v -0.089222 0.038849 -0.260628
v 0.121583 0.004640 -0.075333
v 0.188293 0.002214 -0.017467
v 0.237120 0.004886 0.024476
v -0.029284 0.024177 -0.207489
v 0.156729 0.002770 -0.044792
v -0.109859 0.046440 -0.279158
v 0.045298 0.012211 -0.141945
v 0.083994 0.007808 -0.108104
v -0.061890 0.031316 -0.236319
v 0.259262 0.007463 -0.483153
v -0.049095 0.046137 -0.557358
v 0.031856 0.026753 -0.536454
v 0.290510 0.009392 -0.476535
v 0.108372 0.016390 -0.517923
v 0.069750 0.021113 -0.527198
v 0.277018 0.008124 -0.479325
v 0.237149 0.007494 -0.488051
v 0.299859 0.011194 -0.474744
v -0.030553 0.039702 -0.552262
v -0.002598 0.033076 -0.545054
v 0.180008 0.010014 -0.501086
v 0.145610 0.012688 -0.509111
v 0.210675 0.008312 -0.494036
v 0.305180 0.013471 -0.473918
vn 0.0343 -0.9977 -0.0576
vn 0.0676 -0.9956 -0.0655
vn 0.1058 -0.9914 -0.0768
vn 0.1528 -0.9839 -0.0928
vn 0.2164 -0.9694 -0.1156
vn 0.3128 -0.9379 -0.1499
vn 0.4854 -0.8494 -0.2072
vn 0.8225 -0.4806 -0.3040
vn 0.8356 0.4862 -0.2557
vn 0.4465 0.8886 -0.1056
vn 0.2624 0.9639 -0.0454
vn 0.1669 0.9858 -0.0199
vn 0.1079 0.9941 -0.0086
vn 0.0660 0.9978 -0.0039
vn 0.0327 0.9995 -0.0027
vn 0.0035 1.0000 -0.0032
vn -0.0244 0.9997 -0.0050
vn -0.0533 0.9985 -0.0076
vn -0.0859 0.9962 -0.0113
vn -0.1261 0.9919 -0.0165
vn -0.1810 0.9832 -0.0243
vn -0.2676 0.9628 -0.0378
vn -0.4341 0.8985 -0.0659
vn -0.8190 0.5573 -0.1367
vn -0.8135 -0.5609 -0.1533
vn -0.4205 -0.9026 -0.0923
vn -0.2510 -0.9657 -0.0669
vn -0.1627 -0.9851 -0.0556
vn -0.1060 -0.9931 -0.0505
vn -0.0639 -0.9968 -0.0488
vn -0.0000 -0.0000 1.0000
vn -0.0289 -0.9984 -0.0495
vn 0.0029 -0.9986 -0.0524
vn 0.2915 0.9565 -0.0109
vn -0.1701 0.9847 0.0373
vn -0.0762 0.9963 0.0407
vn -0.2477 0.9686 0.0217
vn 0.1450 0.9894 -0.0001
vn 0.2033 0.9791 -0.0060
vn -0.3942 0.9188 -0.0217
vn 0.1002 0.9949 0.0068
vn -0.7697 0.6159 -0.1682
vn 0.0622 0.9980 0.0143
vn 0.0274 0.9994 0.0221
vn -0.0061 0.9995 0.0296
vn -0.0400 0.9985 0.0361
vn 0.4566 0.8896 -0.0155
vn -0.1176 0.9922 0.0418
vn 0.5012 0.8647 0.0334
vn 0.2320 0.9727 0.0038
vn 0.2807 0.9597 0.0105
vn -0.2030 0.9749 -0.0918
vn 0.1968 0.9804 -0.0020
vn 0.0028 0.9990 -0.0447
vn -0.6786 0.7051 -0.2056
vn 0.0993 0.9948 -0.0231
vn 0.1689 0.9856 -0.0073
vn 0.3573 0.9338 0.0193
vn 0.0440 0.9984 -0.0358
vn 0.1447 0.9894 -0.0125
vn 0.8242 0.5628 0.0620
vn 0.1221 0.9924 -0.0177
vn 0.0742 0.9968 -0.0290
vn -0.0634 0.9962 -0.0593
vn 0.1095 0.9925 -0.0550
vn 0.1719 0.9844 -0.0363
vn 0.3461 0.9381 -0.0150
vn 0.4767 0.8791 -0.0052
vn 0.1498 0.9878 -0.0416
vn 0.0632 0.9950 -0.0773
vn 0.2304 0.9727 -0.0266
vn -0.5446 0.6794 -0.4916
vn 0.2756 0.9610 -0.0213
vn 0.7736 0.6335 0.0163
vn -0.1335 0.9687 -0.2094
vn 0.1978 0.9797 -0.0314
vn 0.1295 0.9904 -0.0477
vn 0.0882 0.9940 -0.0644
vn 0.0300 0.9948 -0.0968
vn -0.0223 0.9911 -0.1312
vn 0.8173 0.5758 -0.0212
vn 0.0445 -0.9980 -0.0453
vn -0.0343 -0.9940 -0.1036
vn 0.0691 -0.9970 -0.0334
vn 0.1024 -0.9945 -0.0231
vn -0.0125 -0.9961 -0.0878
vn 0.1520 -0.9883 -0.0148
vn 0.0063 -0.9973 -0.0728
vn 0.2357 -0.9718 -0.0090
vn -0.7232 -0.6234 -0.2972
vn 0.4049 -0.9143 -0.0072
vn -0.3223 -0.9235 -0.2079
vn 0.8144 -0.5802 -0.0142
vn -0.1759 -0.9704 -0.1653
vn -0.1051 -0.9846 -0.1399
vn 0.0245 -0.9980 -0.0586
vn -0.0630 -0.9907 -0.1206
vn 0.8404 -0.5380 0.0663
vn -0.0040 -0.9999 -0.0116
vn -0.2540 -0.9657 -0.0539
vn 0.0903 -0.9959 0.0007
vn -0.3640 -0.9281 -0.0785
vn -0.1052 -0.9940 -0.0287
vn -0.0591 -0.9980 -0.0207
vn -0.1966 -0.9795 -0.0433
vn -0.1587 -0.9866 -0.0372
vn -0.0823 -0.9963 -0.0248
vn 0.0347 -0.9994 -0.0061
vn 0.1828 -0.9831 0.0106
vn -0.6819 -0.7128 -0.1639
vn 0.3739 -0.9270 0.0281
vn -0.0339 -0.9993 -0.0164
vn -0.1298 -0.9910 -0.0327
vn 0.3884 -0.9208 0.0366
vn -0.2913 -0.9469 -0.1359
vn -0.0322 -0.9995 0.0058
vn -0.1166 -0.9930 -0.0201
vn -0.0556 -0.9985 0.0008
vn -0.1686 -0.9845 -0.0483
vn -0.1396 -0.9897 -0.0315
vn -0.0764 -0.9971 -0.0049
vn 0.8916 -0.4501 0.0491
vn -0.0037 -0.9999 0.0105
vn 0.0339 -0.9993 0.0152
vn 0.0894 -0.9958 0.0203
vn 0.1843 -0.9825 0.0268
vn -0.2112 -0.9744 -0.0767
vn -0.0962 -0.9953 -0.0116
vn -0.5257 -0.7848 -0.3282
vt 0.250000 0.490000
vt 0.250000 0.409229
vt 0.281824 0.409991
vt 0.296822 0.485388
vt 0.313936 0.404356
vt 0.341844 0.471731
vt 0.344950 0.392102
vt 0.383337 0.449553
vt 0.373342 0.373342
vt 0.419706 0.419706
vt 0.397556 0.348594
vt 0.449553 0.383337
vt 0.416131 0.318814
vt 0.471731 0.341844
vt 0.427861 0.285379
vt 0.485388 0.296822
vt 0.431940 0.250000
vt 0.490000 0.250000
vt 0.427441 0.214705
vt 0.485388 0.203178
vt 0.415821 0.181315
vt 0.471731 0.158156
vt 0.397356 0.151540
vt 0.449553 0.116663
vt 0.373237 0.126763
vt 0.419706 0.080294
vt 0.344913 0.107953
vt 0.383337 0.050447
vt 0.313938 0.095641
vt 0.341844 0.028269
vt 0.281836 0.089950
vt 0.296822 0.014612
vt 0.250000 0.090669
vt 0.250000 0.010000
vt 0.219632 0.097332
vt 0.203178 0.014612
vt 0.191722 0.109304
vt 0.158156 0.028269
vt 0.167046 0.125850
vt 0.116663 0.050447
vt 0.146193 0.146193
vt 0.080294 0.080294
vt 0.129592 0.169546
vt 0.050447 0.116663
vt 0.117540 0.195133
vt 0.028269 0.158156
vt 0.110228 0.222198
vt 0.014612 0.203178
vt 0.107766 0.250000
vt 0.010000 0.250000
vt 0.110271 0.277794
vt 0.014612 0.296822
vt 0.117614 0.304836
vt 0.028269 0.341844
vt 0.129683 0.330393
vt 0.050447 0.383337
vt 0.146285 0.353715
vt 0.080294 0.419706
vt 0.167124 0.374033
vt 0.116663 0.449553
vt 0.191776 0.390566
vt 0.158156 0.471731
vt 0.750000 0.490000
vt 0.796822 0.485388
vt 0.841844 0.471731
vt 0.883337 0.449553
vt 0.919706 0.419706
vt 0.949553 0.383337
vt 0.971731 0.341844
vt 0.985388 0.296822
vt 0.990000 0.250000
vt 0.985388 0.203178
vt 0.971731 0.158156
vt 0.949553 0.116663
vt 0.919706 0.080294
vt 0.883337 0.050447
vt 0.841844 0.028269
vt 0.796822 0.014612
vt 0.750000 0.010000
vt 0.703178 0.014612
vt 0.658156 0.028269
vt 0.616663 0.050447
vt 0.580294 0.080294
vt 0.550447 0.116663
vt 0.528269 0.158156
vt 0.514612 0.203178
vt 0.510000 0.250000
vt 0.514612 0.296822
vt 0.528269 0.341844
vt 0.550447 0.383337
vt 0.580294 0.419706
vt 0.616663 0.449553
vt 0.658156 0.471731
vt 0.703178 0.485388
vt 0.219657 0.402542
vt 0.203178 0.485388
vt 0.353866 0.206977
vt 0.344094 0.187128
vt 0.160134 0.160134
vt 0.143271 0.178686
vt 0.202593 0.135549
vt 0.180237 0.145592
vt 0.130521 0.200510
vt 0.330737 0.169263
vt 0.314134 0.154016
vt 0.122577 0.224654
vt 0.294739 0.141991
vt 0.119881 0.250000
vt 0.273127 0.133733
vt 0.250000 0.129705
vt 0.226180 0.130249
vt 0.359818 0.228156
vt 0.312753 0.237518
vt 0.309876 0.225198
vt 0.298182 0.201818
vt 0.289263 0.191238
vt 0.305036 0.213226
vt 0.147799 0.207667
vt 0.139122 0.227945
vt 0.278241 0.181821
vt 0.177736 0.177736
vt 0.161139 0.190625
vt 0.136130 0.250000
vt 0.233112 0.165097
vt 0.214904 0.165271
vt 0.265122 0.173977
vt 0.196099 0.169332
vt 0.250000 0.168209
vt 0.361814 0.250000
vt 0.313701 0.250000
vt 0.250000 0.250000
vt 0.273120 0.366230
vt 0.294726 0.357977
vt 0.180257 0.354379
vt 0.202608 0.364415
vt 0.314117 0.345958
vt 0.330719 0.330719
vt 0.226188 0.369712
vt 0.344078 0.312861
vt 0.250000 0.370256
vt 0.353853 0.293018
vt 0.122585 0.275344
vt 0.359811 0.271843
vt 0.130537 0.299483
vt 0.143292 0.321300
vt 0.160156 0.339844
vt 0.312765 0.262485
vt 0.278270 0.318249
vt 0.289298 0.308813
vt 0.147735 0.292360
vt 0.161061 0.309427
vt 0.298217 0.298217
vt 0.305066 0.286794
vt 0.139086 0.272062
vt 0.214860 0.334836
vt 0.233090 0.335010
vt 0.250000 0.331891
vt 0.265139 0.326109
vt 0.177658 0.322342
vt 0.196034 0.330765
vt 0.309898 0.274811
s 0
f 1/1/1 96/2/1 99/3/1 2/4/1
f 2/4/2 99/3/2 88/5/2 3/6/2
f 3/6/3 88/5/3 93/7/3 4/8/3
f 4/8/4 93/7/4 98/9/4 5/10/4
f 5/10/5 98/9/5 87/11/5 6/12/5
f 6/12/6 87/11/6 92/13/6 7/14/6
f 7/14/7 92/13/7 97/15/7 8/16/7
f 8/16/8 97/15/8 84/17/8 9/18/8
f 9/18/9 84/17/9 41/19/9 10/20/9
f 10/20/10 41/19/10 46/21/10 11/22/10
f 11/22/11 46/21/11 35/23/11 12/24/11
f 12/24/12 35/23/12 40/25/12 13/26/12
f 13/26/13 40/25/13 45/27/13 14/28/13
f 14/28/14 45/27/14 34/29/14 15/30/14
f 15/30/15 34/29/15 39/31/15 16/32/15
f 16/32/16 39/31/16 44/33/16 17/34/16
f 17/34/17 44/33/17 49/35/17 18/36/17
f 18/36/18 49/35/18 38/37/18 19/38/18
f 19/38/19 38/37/19 43/39/19 20/40/19
f 20/40/20 43/39/20 48/41/20 21/42/20
f 21/42/21 48/41/21 37/43/21 22/44/21
f 22/44/22 37/43/22 42/45/22 23/46/22
f 23/46/23 42/45/23 47/47/23 24/48/23
f 24/48/24 47/47/24 36/49/24 25/50/24
f 25/50/25 36/49/25 91/51/25 26/52/25
f 26/52/26 91/51/26 95/53/26 27/54/26
f 27/54/27 95/53/27 86/55/27 28/56/27
f 28/56/28 86/55/28 90/57/28 29/58/28
f 29/58/29 90/57/29 94/59/29 30/60/29
f 30/60/30 94/59/30 85/61/30 31/62/30
f 1/63/31 2/64/31 3/65/31 4/66/31 5/67/31 6/68/31 7/69/31 8/70/31 9/71/31 10/72/31 11/73/31 12/74/31 13/75/31 14/76/31 15/77/31 16/78/31 17/79/31 18/80/31 19/81/31 20/82/31 21/83/31 22/84/31 23/85/31 24/86/31 25/87/31 26/88/31 27/89/31 28/90/31 29/91/31 30/92/31 31/93/31 32/94/31
f 31/62/32 85/61/32 89/95/32 32/96/32
f 32/96/33 89/95/33 96/2/33 1/1/33
f 35/23/34 46/21/34 53/97/34 56/98/34
f 37/43/35 48/41/35 57/99/35 60/100/35
f 43/39/36 38/37/36 62/101/36 50/102/36
f 42/45/37 37/43/37 60/100/37 66/103/37
f 45/27/38 40/25/38 64/104/38 52/105/38
f 40/25/39 35/23/39 56/98/39 64/104/39
f 47/47/40 42/45/40 66/103/40 55/106/40
f 34/29/41 45/27/41 52/105/41 54/107/41
f 36/49/42 47/47/42 55/106/42 58/108/42
f 39/31/43 34/29/43 54/107/43 63/109/43
f 44/33/44 39/31/44 63/109/44 51/110/44
f 49/35/45 44/33/45 51/110/45 59/111/45
f 38/37/46 49/35/46 59/111/46 62/101/46
f 46/21/47 41/19/47 65/112/47 53/97/47
f 48/41/48 43/39/48 50/102/48 57/99/48
f 53/97/49 65/112/49 82/113/49 83/114/49
f 52/105/50 64/104/50 80/115/50 81/116/50
f 64/104/51 56/98/51 70/117/51 80/115/51
f 55/106/52 66/103/52 67/118/52 69/119/52
f 54/107/53 52/105/53 81/116/53 68/120/53
f 60/100/54 57/99/54 71/121/54 74/122/54
f 58/108/55 55/106/55 69/119/55 72/123/55
f 62/101/56 59/111/56 73/124/56 76/125/56
f 63/109/57 54/107/57 68/120/57 78/126/57
f 56/98/58 53/97/58 83/114/58 70/117/58
f 57/99/59 50/102/59 77/127/59 71/121/59
f 51/110/60 63/109/60 78/126/60 79/128/60
f 65/112/61 61/129/61 75/130/61 82/113/61
f 59/111/62 51/110/62 79/128/62 73/124/62
f 50/102/63 62/101/63 76/125/63 77/127/63
f 66/103/64 60/100/64 74/122/64 67/118/64
f 76/125/65 73/124/65 33/131/65
f 78/126/66 68/120/66 33/131/66
f 70/117/67 83/114/67 33/131/67
f 83/114/68 82/113/68 33/131/68
f 79/128/69 78/126/69 33/131/69
f 71/121/70 77/127/70 33/131/70
f 81/116/71 80/115/71 33/131/71
f 72/123/72 69/119/72 33/131/72
f 80/115/73 70/117/73 33/131/73
f 82/113/74 75/130/74 33/131/74
f 69/119/75 67/118/75 33/131/75
f 68/120/76 81/116/76 33/131/76
f 73/124/77 79/128/77 33/131/77
f 77/127/78 76/125/78 33/131/78
f 74/122/79 71/121/79 33/131/79
f 67/118/80 74/122/80 33/131/80
f 41/19/81 84/17/81 61/129/81 65/112/81
f 88/5/82 99/3/82 106/132/82 110/133/82
f 85/61/83 94/59/83 109/134/83 102/135/83
f 93/7/84 88/5/84 110/133/84 107/136/84
f 98/9/85 93/7/85 107/136/85 103/137/85
f 89/95/86 85/61/86 102/135/86 112/138/86
f 87/11/87 98/9/87 103/137/87 108/139/87
f 96/2/88 89/95/88 112/138/88 113/140/88
f 92/13/89 87/11/89 108/139/89 104/141/89
f 91/51/90 36/49/90 58/108/90 101/142/90
f 97/15/91 92/13/91 104/141/91 100/143/91
f 95/53/92 91/51/92 101/142/92 111/144/92
f 84/17/93 97/15/93 100/143/93 61/129/93
f 86/55/94 95/53/94 111/144/94 105/145/94
f 90/57/95 86/55/95 105/145/95 114/146/95
f 99/3/96 96/2/96 113/140/96 106/132/96
f 94/59/97 90/57/97 114/146/97 109/134/97
f 61/129/98 100/143/98 129/147/98 75/130/98
f 107/136/99 110/133/99 122/148/99 115/149/99
f 105/145/100 111/144/100 124/150/100 125/151/100
f 108/139/101 103/137/101 121/152/101 118/153/101
f 111/144/102 101/142/102 116/154/102 124/150/102
f 112/138/103 102/135/103 119/155/103 127/156/103
f 106/132/104 113/140/104 126/157/104 128/158/104
f 114/146/105 105/145/105 125/151/105 117/159/105
f 109/134/106 114/146/106 117/159/106 120/160/106
f 113/140/107 112/138/107 127/156/107 126/157/107
f 103/137/108 107/136/108 115/149/108 121/152/108
f 104/141/109 108/139/109 118/153/109 123/161/109
f 101/142/110 58/108/110 72/123/110 116/154/110
f 100/143/111 104/141/111 123/161/111 129/147/111
f 110/133/112 106/132/112 128/158/112 122/148/112
f 102/135/113 109/134/113 120/160/113 119/155/113
f 129/147/114 123/161/114 33/131/114
f 124/150/115 116/154/115 33/131/115
f 122/148/116 128/158/116 33/131/116
f 119/155/117 120/160/117 33/131/117
f 128/158/118 126/157/118 33/131/118
f 117/159/119 125/151/119 33/131/119
f 120/160/120 117/159/120 33/131/120
f 126/157/121 127/156/121 33/131/121
f 75/130/122 129/147/122 33/131/122
f 115/149/123 122/148/123 33/131/123
f 121/152/124 115/149/124 33/131/124
f 118/153/125 121/152/125 33/131/125
f 123/161/126 118/153/126 33/131/126
f 125/151/127 124/150/127 33/131/127
f 127/156/128 119/155/128 33/131/128
f 116/154/129 72/123/129 33/131/129
